<mxfile host="app.diagrams.net" modified="2023-10-29T19:17:05.157Z" agent="Mozilla/5.0 (Windows NT 10.0; Win64; x64) AppleWebKit/537.36 (KHTML, like Gecko) Chrome/119.0.0.0 Safari/537.36" etag="hho-mKzEvdm85yBojfE3" version="22.0.8" type="device">
  <diagram name="Page-1" id="1akDp7m4avPQtbB01FnF">
    <mxGraphModel dx="913" dy="471" grid="1" gridSize="10" guides="1" tooltips="1" connect="1" arrows="1" fold="1" page="1" pageScale="1" pageWidth="850" pageHeight="1100" math="1" shadow="0">
      <root>
        <mxCell id="0" />
        <mxCell id="1" parent="0" />
        <mxCell id="_aBtv9UDma8dpG4EVbKt-98" value="" style="rounded=0;whiteSpace=wrap;html=1;strokeColor=none;" parent="1" vertex="1">
          <mxGeometry x="60" width="680" height="400" as="geometry" />
        </mxCell>
        <mxCell id="_aBtv9UDma8dpG4EVbKt-91" value="" style="rounded=1;whiteSpace=wrap;html=1;opacity=20;strokeWidth=2;fillColor=#E6E6E6;" parent="1" vertex="1">
          <mxGeometry x="505.5" y="268.5" width="200" height="92.5" as="geometry" />
        </mxCell>
        <mxCell id="_aBtv9UDma8dpG4EVbKt-1" value="" style="shape=curlyBracket;whiteSpace=wrap;html=1;rounded=1;labelPosition=left;verticalLabelPosition=middle;align=right;verticalAlign=middle;" parent="1" vertex="1">
          <mxGeometry x="100" y="55" width="20" height="60" as="geometry" />
        </mxCell>
        <mxCell id="_aBtv9UDma8dpG4EVbKt-13" style="edgeStyle=orthogonalEdgeStyle;rounded=0;orthogonalLoop=1;jettySize=auto;html=1;exitX=0.1;exitY=0.5;exitDx=0;exitDy=0;exitPerimeter=0;entryX=0;entryY=0.5;entryDx=0;entryDy=0;" parent="1" source="_aBtv9UDma8dpG4EVbKt-2" target="_aBtv9UDma8dpG4EVbKt-7" edge="1">
          <mxGeometry relative="1" as="geometry" />
        </mxCell>
        <mxCell id="_aBtv9UDma8dpG4EVbKt-2" value="" style="shape=curlyBracket;whiteSpace=wrap;html=1;rounded=1;flipH=1;labelPosition=right;verticalLabelPosition=middle;align=left;verticalAlign=middle;" parent="1" vertex="1">
          <mxGeometry x="135" y="55" width="20" height="60" as="geometry" />
        </mxCell>
        <mxCell id="_aBtv9UDma8dpG4EVbKt-3" value="" style="ellipse;whiteSpace=wrap;html=1;aspect=fixed;fillColor=#cdeb8b;strokeColor=#36393d;" parent="1" vertex="1">
          <mxGeometry x="120" y="65" width="15" height="15" as="geometry" />
        </mxCell>
        <mxCell id="_aBtv9UDma8dpG4EVbKt-4" value="" style="ellipse;whiteSpace=wrap;html=1;aspect=fixed;fillColor=#cdeb8b;strokeColor=#36393d;" parent="1" vertex="1">
          <mxGeometry x="120" y="90" width="15" height="15" as="geometry" />
        </mxCell>
        <mxCell id="_aBtv9UDma8dpG4EVbKt-5" value="SZA" style="text;html=1;strokeColor=none;fillColor=none;align=center;verticalAlign=middle;whiteSpace=wrap;rounded=0;" parent="1" vertex="1">
          <mxGeometry x="50" y="57.5" width="60" height="30" as="geometry" />
        </mxCell>
        <mxCell id="_aBtv9UDma8dpG4EVbKt-6" value="SAA" style="text;html=1;strokeColor=none;fillColor=none;align=center;verticalAlign=middle;whiteSpace=wrap;rounded=0;" parent="1" vertex="1">
          <mxGeometry x="50" y="82.5" width="60" height="30" as="geometry" />
        </mxCell>
        <mxCell id="_aBtv9UDma8dpG4EVbKt-14" style="edgeStyle=orthogonalEdgeStyle;rounded=0;orthogonalLoop=1;jettySize=auto;html=1;exitX=1;exitY=0.5;exitDx=0;exitDy=0;entryX=0;entryY=0.5;entryDx=0;entryDy=0;" parent="1" source="_aBtv9UDma8dpG4EVbKt-7" target="_aBtv9UDma8dpG4EVbKt-8" edge="1">
          <mxGeometry relative="1" as="geometry" />
        </mxCell>
        <mxCell id="_aBtv9UDma8dpG4EVbKt-7" value="" style="rounded=0;whiteSpace=wrap;html=1;fillColor=#fff2cc;strokeColor=#d6b656;" parent="1" vertex="1">
          <mxGeometry x="190" y="55" width="20" height="60" as="geometry" />
        </mxCell>
        <mxCell id="_aBtv9UDma8dpG4EVbKt-15" style="edgeStyle=orthogonalEdgeStyle;rounded=0;orthogonalLoop=1;jettySize=auto;html=1;exitX=1;exitY=0.5;exitDx=0;exitDy=0;entryX=0;entryY=0.5;entryDx=0;entryDy=0;" parent="1" source="_aBtv9UDma8dpG4EVbKt-8" target="_aBtv9UDma8dpG4EVbKt-9" edge="1">
          <mxGeometry relative="1" as="geometry" />
        </mxCell>
        <mxCell id="_aBtv9UDma8dpG4EVbKt-8" value="" style="rounded=0;whiteSpace=wrap;html=1;fillColor=#fff2cc;strokeColor=#d6b656;" parent="1" vertex="1">
          <mxGeometry x="250" y="40" width="20" height="90" as="geometry" />
        </mxCell>
        <mxCell id="_aBtv9UDma8dpG4EVbKt-9" value="" style="rounded=0;whiteSpace=wrap;html=1;fillColor=#fff2cc;strokeColor=#d6b656;" parent="1" vertex="1">
          <mxGeometry x="310" y="25" width="20" height="120" as="geometry" />
        </mxCell>
        <mxCell id="_aBtv9UDma8dpG4EVbKt-10" value="&lt;font style=&quot;font-size: 10px;&quot;&gt;4X1&lt;/font&gt;" style="text;html=1;strokeColor=none;fillColor=none;align=center;verticalAlign=middle;whiteSpace=wrap;rounded=0;" parent="1" vertex="1">
          <mxGeometry x="170" y="35" width="60" height="20" as="geometry" />
        </mxCell>
        <mxCell id="_aBtv9UDma8dpG4EVbKt-11" value="&lt;font style=&quot;font-size: 10px;&quot;&gt;8X1&lt;/font&gt;" style="text;html=1;strokeColor=none;fillColor=none;align=center;verticalAlign=middle;whiteSpace=wrap;rounded=0;" parent="1" vertex="1">
          <mxGeometry x="230" y="20" width="60" height="20" as="geometry" />
        </mxCell>
        <mxCell id="_aBtv9UDma8dpG4EVbKt-12" value="&lt;font style=&quot;font-size: 10px;&quot;&gt;16X1&lt;/font&gt;" style="text;html=1;strokeColor=none;fillColor=none;align=center;verticalAlign=middle;whiteSpace=wrap;rounded=0;" parent="1" vertex="1">
          <mxGeometry x="290" y="5" width="60" height="20" as="geometry" />
        </mxCell>
        <mxCell id="_aBtv9UDma8dpG4EVbKt-16" value="&lt;font style=&quot;font-size: 10px;&quot;&gt;\(\sigma\)&lt;/font&gt;" style="text;html=1;strokeColor=none;fillColor=none;align=center;verticalAlign=middle;whiteSpace=wrap;rounded=0;" parent="1" vertex="1">
          <mxGeometry x="137.5" y="65" width="60" height="20" as="geometry" />
        </mxCell>
        <mxCell id="_aBtv9UDma8dpG4EVbKt-17" value="&lt;font style=&quot;font-size: 10px;&quot;&gt;\(\sigma\)&lt;/font&gt;" style="text;html=1;strokeColor=none;fillColor=none;align=center;verticalAlign=middle;whiteSpace=wrap;rounded=0;" parent="1" vertex="1">
          <mxGeometry x="197.5" y="65" width="60" height="20" as="geometry" />
        </mxCell>
        <mxCell id="_aBtv9UDma8dpG4EVbKt-18" value="&lt;span style=&quot;font-size: 10px;&quot;&gt;\(\sigma\)&lt;/span&gt;" style="text;html=1;strokeColor=none;fillColor=none;align=center;verticalAlign=middle;whiteSpace=wrap;rounded=0;" parent="1" vertex="1">
          <mxGeometry x="257.5" y="65" width="60" height="20" as="geometry" />
        </mxCell>
        <mxCell id="_aBtv9UDma8dpG4EVbKt-22" value="" style="shape=curlyBracket;whiteSpace=wrap;html=1;rounded=1;labelPosition=left;verticalLabelPosition=middle;align=right;verticalAlign=middle;" parent="1" vertex="1">
          <mxGeometry x="99.5" y="190" width="20" height="152.5" as="geometry" />
        </mxCell>
        <mxCell id="_aBtv9UDma8dpG4EVbKt-23" value="" style="shape=curlyBracket;whiteSpace=wrap;html=1;rounded=1;flipH=1;labelPosition=right;verticalLabelPosition=middle;align=left;verticalAlign=middle;" parent="1" vertex="1">
          <mxGeometry x="134.5" y="190" width="20" height="152.5" as="geometry" />
        </mxCell>
        <mxCell id="_aBtv9UDma8dpG4EVbKt-24" value="" style="ellipse;whiteSpace=wrap;html=1;aspect=fixed;fillColor=#cdeb8b;strokeColor=#36393d;" parent="1" vertex="1">
          <mxGeometry x="119.5" y="200" width="15" height="15" as="geometry" />
        </mxCell>
        <mxCell id="_aBtv9UDma8dpG4EVbKt-25" value="" style="ellipse;whiteSpace=wrap;html=1;aspect=fixed;fillColor=#cdeb8b;strokeColor=#36393d;" parent="1" vertex="1">
          <mxGeometry x="119.5" y="225" width="15" height="15" as="geometry" />
        </mxCell>
        <mxCell id="_aBtv9UDma8dpG4EVbKt-26" value="" style="ellipse;whiteSpace=wrap;html=1;aspect=fixed;fillColor=#cdeb8b;strokeColor=#36393d;" parent="1" vertex="1">
          <mxGeometry x="119.5" y="250" width="15" height="15" as="geometry" />
        </mxCell>
        <mxCell id="_aBtv9UDma8dpG4EVbKt-27" value="" style="endArrow=none;dashed=1;html=1;rounded=0;" parent="1" edge="1">
          <mxGeometry width="50" height="50" relative="1" as="geometry">
            <mxPoint x="126.84" y="280" as="sourcePoint" />
            <mxPoint x="126.84" y="310" as="targetPoint" />
          </mxGeometry>
        </mxCell>
        <mxCell id="_aBtv9UDma8dpG4EVbKt-28" value="" style="ellipse;whiteSpace=wrap;html=1;aspect=fixed;fillColor=#cdeb8b;strokeColor=#36393d;" parent="1" vertex="1">
          <mxGeometry x="119.5" y="320" width="15" height="15" as="geometry" />
        </mxCell>
        <mxCell id="_aBtv9UDma8dpG4EVbKt-29" value="" style="shape=curlyBracket;whiteSpace=wrap;html=1;rounded=1;labelPosition=left;verticalLabelPosition=middle;align=right;verticalAlign=middle;" parent="1" vertex="1">
          <mxGeometry x="195" y="190" width="20" height="152.5" as="geometry" />
        </mxCell>
        <mxCell id="_aBtv9UDma8dpG4EVbKt-43" style="edgeStyle=orthogonalEdgeStyle;rounded=0;orthogonalLoop=1;jettySize=auto;html=1;exitX=0.1;exitY=0.5;exitDx=0;exitDy=0;exitPerimeter=0;entryX=0;entryY=0.5;entryDx=0;entryDy=0;" parent="1" source="_aBtv9UDma8dpG4EVbKt-30" target="_aBtv9UDma8dpG4EVbKt-42" edge="1">
          <mxGeometry relative="1" as="geometry">
            <mxPoint x="286.0000000000001" y="266.25" as="targetPoint" />
          </mxGeometry>
        </mxCell>
        <mxCell id="_aBtv9UDma8dpG4EVbKt-30" value="" style="shape=curlyBracket;whiteSpace=wrap;html=1;rounded=1;flipH=1;labelPosition=right;verticalLabelPosition=middle;align=left;verticalAlign=middle;" parent="1" vertex="1">
          <mxGeometry x="230.5" y="190" width="20" height="152.5" as="geometry" />
        </mxCell>
        <mxCell id="_aBtv9UDma8dpG4EVbKt-31" value="" style="ellipse;whiteSpace=wrap;html=1;aspect=fixed;fillColor=#cdeb8b;strokeColor=#36393d;" parent="1" vertex="1">
          <mxGeometry x="215" y="200" width="15" height="15" as="geometry" />
        </mxCell>
        <mxCell id="_aBtv9UDma8dpG4EVbKt-32" value="" style="ellipse;whiteSpace=wrap;html=1;aspect=fixed;fillColor=#cdeb8b;strokeColor=#36393d;" parent="1" vertex="1">
          <mxGeometry x="215" y="225" width="15" height="15" as="geometry" />
        </mxCell>
        <mxCell id="_aBtv9UDma8dpG4EVbKt-33" value="" style="ellipse;whiteSpace=wrap;html=1;aspect=fixed;fillColor=#cdeb8b;strokeColor=#36393d;" parent="1" vertex="1">
          <mxGeometry x="215" y="250" width="15" height="15" as="geometry" />
        </mxCell>
        <mxCell id="_aBtv9UDma8dpG4EVbKt-34" value="" style="endArrow=none;dashed=1;html=1;rounded=0;" parent="1" edge="1">
          <mxGeometry width="50" height="50" relative="1" as="geometry">
            <mxPoint x="222.84000000000003" y="280" as="sourcePoint" />
            <mxPoint x="222.84000000000003" y="310" as="targetPoint" />
          </mxGeometry>
        </mxCell>
        <mxCell id="_aBtv9UDma8dpG4EVbKt-35" value="" style="ellipse;whiteSpace=wrap;html=1;aspect=fixed;fillColor=#cdeb8b;strokeColor=#36393d;" parent="1" vertex="1">
          <mxGeometry x="215" y="320" width="15" height="15" as="geometry" />
        </mxCell>
        <mxCell id="_aBtv9UDma8dpG4EVbKt-36" value="&lt;font style=&quot;font-size: 16px;&quot; face=&quot;Lucida Console&quot;&gt;X&lt;/font&gt;" style="text;html=1;strokeColor=none;fillColor=none;align=center;verticalAlign=middle;whiteSpace=wrap;rounded=0;" parent="1" vertex="1">
          <mxGeometry x="145" y="251.25" width="60" height="30" as="geometry" />
        </mxCell>
        <mxCell id="_aBtv9UDma8dpG4EVbKt-37" value="Cloud Fraction" style="text;html=1;strokeColor=none;fillColor=none;align=center;verticalAlign=middle;whiteSpace=wrap;rounded=0;" parent="1" vertex="1">
          <mxGeometry x="97" y="342.5" width="60" height="30" as="geometry" />
        </mxCell>
        <mxCell id="_aBtv9UDma8dpG4EVbKt-38" value="Cloud Class" style="text;html=1;strokeColor=none;fillColor=none;align=center;verticalAlign=middle;whiteSpace=wrap;rounded=0;" parent="1" vertex="1">
          <mxGeometry x="192.5" y="342.5" width="60" height="30" as="geometry" />
        </mxCell>
        <mxCell id="_aBtv9UDma8dpG4EVbKt-39" value="&lt;font style=&quot;font-size: 10px;&quot; face=&quot;Courier New&quot;&gt;&lt;b&gt;Classes \(\in \{\)0,1,2,3,4\(\}\)&lt;br&gt;Weights \(\in \{\)a,b,c,d,e\(\}\)&lt;/b&gt;&lt;/font&gt;" style="text;html=1;strokeColor=none;fillColor=none;align=center;verticalAlign=middle;whiteSpace=wrap;rounded=0;" parent="1" vertex="1">
          <mxGeometry x="158.5" y="142.5" width="130" height="30" as="geometry" />
        </mxCell>
        <mxCell id="_aBtv9UDma8dpG4EVbKt-41" value="" style="shape=curlyBracket;whiteSpace=wrap;html=1;rounded=1;labelPosition=left;verticalLabelPosition=middle;align=right;verticalAlign=middle;direction=north;" parent="1" vertex="1">
          <mxGeometry x="157.5" y="170" width="130" height="20" as="geometry" />
        </mxCell>
        <mxCell id="_aBtv9UDma8dpG4EVbKt-42" value="" style="rounded=0;whiteSpace=wrap;html=1;fillColor=#e1d5e7;strokeColor=#9673a6;" parent="1" vertex="1">
          <mxGeometry x="310" y="206.25" width="20" height="120" as="geometry" />
        </mxCell>
        <mxCell id="_aBtv9UDma8dpG4EVbKt-44" value="&lt;font style=&quot;font-size: 10px;&quot;&gt;16X1&lt;/font&gt;" style="text;html=1;strokeColor=none;fillColor=none;align=center;verticalAlign=middle;whiteSpace=wrap;rounded=0;" parent="1" vertex="1">
          <mxGeometry x="289.5" y="326.25" width="60" height="20" as="geometry" />
        </mxCell>
        <mxCell id="_aBtv9UDma8dpG4EVbKt-45" value="&lt;font style=&quot;font-size: 10px;&quot;&gt;16X1&lt;/font&gt;" style="text;html=1;strokeColor=none;fillColor=none;align=center;verticalAlign=middle;whiteSpace=wrap;rounded=0;" parent="1" vertex="1">
          <mxGeometry x="97" y="370" width="60" height="20" as="geometry" />
        </mxCell>
        <mxCell id="_aBtv9UDma8dpG4EVbKt-46" value="&lt;font style=&quot;font-size: 10px;&quot;&gt;16X1&lt;/font&gt;" style="text;html=1;strokeColor=none;fillColor=none;align=center;verticalAlign=middle;whiteSpace=wrap;rounded=0;" parent="1" vertex="1">
          <mxGeometry x="192.5" y="370" width="60" height="20" as="geometry" />
        </mxCell>
        <mxCell id="_aBtv9UDma8dpG4EVbKt-47" value="&lt;font style=&quot;font-size: 10px;&quot;&gt;\(ReTh\)&lt;/font&gt;" style="text;html=1;strokeColor=none;fillColor=none;align=center;verticalAlign=middle;whiteSpace=wrap;rounded=0;" parent="1" vertex="1">
          <mxGeometry x="245" y="246.25" width="60" height="20" as="geometry" />
        </mxCell>
        <mxCell id="_aBtv9UDma8dpG4EVbKt-52" style="edgeStyle=orthogonalEdgeStyle;rounded=0;orthogonalLoop=1;jettySize=auto;html=1;exitX=1;exitY=0.5;exitDx=0;exitDy=0;entryX=0;entryY=0.5;entryDx=0;entryDy=0;" parent="1" source="_aBtv9UDma8dpG4EVbKt-50" target="_aBtv9UDma8dpG4EVbKt-51" edge="1">
          <mxGeometry relative="1" as="geometry" />
        </mxCell>
        <mxCell id="_aBtv9UDma8dpG4EVbKt-50" value="&lt;font style=&quot;font-size: 16px;&quot; face=&quot;Lucida Console&quot;&gt;X&lt;/font&gt;" style="text;html=1;strokeColor=none;fillColor=none;align=center;verticalAlign=middle;whiteSpace=wrap;rounded=0;" parent="1" vertex="1">
          <mxGeometry x="310" y="160.625" width="20" height="30" as="geometry" />
        </mxCell>
        <mxCell id="_aBtv9UDma8dpG4EVbKt-55" style="edgeStyle=orthogonalEdgeStyle;rounded=0;orthogonalLoop=1;jettySize=auto;html=1;exitX=1;exitY=0.5;exitDx=0;exitDy=0;entryX=0;entryY=0.5;entryDx=0;entryDy=0;" parent="1" source="_aBtv9UDma8dpG4EVbKt-51" target="_aBtv9UDma8dpG4EVbKt-54" edge="1">
          <mxGeometry relative="1" as="geometry" />
        </mxCell>
        <mxCell id="_aBtv9UDma8dpG4EVbKt-51" value="" style="rounded=0;whiteSpace=wrap;html=1;fillColor=#dae8fc;strokeColor=#6c8ebf;" parent="1" vertex="1">
          <mxGeometry x="370" y="115.625" width="20" height="120" as="geometry" />
        </mxCell>
        <mxCell id="_aBtv9UDma8dpG4EVbKt-53" value="&lt;font style=&quot;font-size: 10px;&quot;&gt;16X1&lt;/font&gt;" style="text;html=1;strokeColor=none;fillColor=none;align=center;verticalAlign=middle;whiteSpace=wrap;rounded=0;" parent="1" vertex="1">
          <mxGeometry x="350" y="235.625" width="60" height="20" as="geometry" />
        </mxCell>
        <mxCell id="_aBtv9UDma8dpG4EVbKt-62" style="edgeStyle=orthogonalEdgeStyle;rounded=0;orthogonalLoop=1;jettySize=auto;html=1;exitX=1;exitY=0.5;exitDx=0;exitDy=0;entryX=0;entryY=0.5;entryDx=0;entryDy=0;" parent="1" source="_aBtv9UDma8dpG4EVbKt-54" target="_aBtv9UDma8dpG4EVbKt-58" edge="1">
          <mxGeometry relative="1" as="geometry" />
        </mxCell>
        <mxCell id="_aBtv9UDma8dpG4EVbKt-54" value="" style="rounded=0;whiteSpace=wrap;html=1;fillColor=#dae8fc;strokeColor=#6c8ebf;" parent="1" vertex="1">
          <mxGeometry x="430" y="130.625" width="20" height="90" as="geometry" />
        </mxCell>
        <mxCell id="_aBtv9UDma8dpG4EVbKt-56" value="&lt;font style=&quot;font-size: 10px;&quot;&gt;8X1&lt;/font&gt;" style="text;html=1;strokeColor=none;fillColor=none;align=center;verticalAlign=middle;whiteSpace=wrap;rounded=0;" parent="1" vertex="1">
          <mxGeometry x="410" y="220.625" width="60" height="20" as="geometry" />
        </mxCell>
        <mxCell id="_aBtv9UDma8dpG4EVbKt-57" value="&lt;font style=&quot;font-size: 10px;&quot;&gt;\(Tanh\)&lt;/font&gt;" style="text;html=1;strokeColor=none;fillColor=none;align=center;verticalAlign=middle;whiteSpace=wrap;rounded=0;" parent="1" vertex="1">
          <mxGeometry x="378.5" y="155.625" width="60" height="20" as="geometry" />
        </mxCell>
        <mxCell id="_aBtv9UDma8dpG4EVbKt-76" style="edgeStyle=orthogonalEdgeStyle;rounded=0;orthogonalLoop=1;jettySize=auto;html=1;exitX=1;exitY=0.5;exitDx=0;exitDy=0;entryX=0;entryY=0.5;entryDx=0;entryDy=0;" parent="1" source="_aBtv9UDma8dpG4EVbKt-58" target="_aBtv9UDma8dpG4EVbKt-71" edge="1">
          <mxGeometry relative="1" as="geometry" />
        </mxCell>
        <mxCell id="_aBtv9UDma8dpG4EVbKt-58" value="" style="rounded=0;whiteSpace=wrap;html=1;fillColor=#dae8fc;strokeColor=#6c8ebf;" parent="1" vertex="1">
          <mxGeometry x="490" y="145.625" width="20" height="60" as="geometry" />
        </mxCell>
        <mxCell id="_aBtv9UDma8dpG4EVbKt-59" value="&lt;font style=&quot;font-size: 10px;&quot;&gt;4X1&lt;/font&gt;" style="text;html=1;strokeColor=none;fillColor=none;align=center;verticalAlign=middle;whiteSpace=wrap;rounded=0;" parent="1" vertex="1">
          <mxGeometry x="470" y="205.625" width="60" height="20" as="geometry" />
        </mxCell>
        <mxCell id="_aBtv9UDma8dpG4EVbKt-60" value="&lt;font style=&quot;font-size: 10px;&quot;&gt;\(Tanh\)&lt;/font&gt;" style="text;html=1;strokeColor=none;fillColor=none;align=center;verticalAlign=middle;whiteSpace=wrap;rounded=0;" parent="1" vertex="1">
          <mxGeometry x="437.5" y="155.625" width="60" height="20" as="geometry" />
        </mxCell>
        <mxCell id="_aBtv9UDma8dpG4EVbKt-69" value="" style="shape=curlyBracket;whiteSpace=wrap;html=1;rounded=1;labelPosition=left;verticalLabelPosition=middle;align=right;verticalAlign=middle;" parent="1" vertex="1">
          <mxGeometry x="560" y="158.125" width="20" height="60" as="geometry" />
        </mxCell>
        <mxCell id="_aBtv9UDma8dpG4EVbKt-80" style="edgeStyle=orthogonalEdgeStyle;rounded=0;orthogonalLoop=1;jettySize=auto;html=1;exitX=0.1;exitY=0.5;exitDx=0;exitDy=0;exitPerimeter=0;entryX=0;entryY=0.5;entryDx=0;entryDy=0;" parent="1" source="_aBtv9UDma8dpG4EVbKt-70" target="_aBtv9UDma8dpG4EVbKt-79" edge="1">
          <mxGeometry relative="1" as="geometry" />
        </mxCell>
        <mxCell id="_aBtv9UDma8dpG4EVbKt-70" value="" style="shape=curlyBracket;whiteSpace=wrap;html=1;rounded=1;flipH=1;labelPosition=right;verticalLabelPosition=middle;align=left;verticalAlign=middle;" parent="1" vertex="1">
          <mxGeometry x="595" y="158.125" width="20" height="60" as="geometry" />
        </mxCell>
        <mxCell id="_aBtv9UDma8dpG4EVbKt-71" value="" style="ellipse;whiteSpace=wrap;html=1;aspect=fixed;fillColor=#DAE8FC;strokeColor=#36393d;" parent="1" vertex="1">
          <mxGeometry x="580" y="168.125" width="15" height="15" as="geometry" />
        </mxCell>
        <mxCell id="_aBtv9UDma8dpG4EVbKt-72" value="" style="ellipse;whiteSpace=wrap;html=1;aspect=fixed;fillColor=#cdeb8b;strokeColor=#36393d;" parent="1" vertex="1">
          <mxGeometry x="580" y="193.125" width="15" height="15" as="geometry" />
        </mxCell>
        <mxCell id="_aBtv9UDma8dpG4EVbKt-74" value="CSM" style="text;html=1;strokeColor=none;fillColor=none;align=center;verticalAlign=middle;whiteSpace=wrap;rounded=0;" parent="1" vertex="1">
          <mxGeometry x="518" y="185.625" width="60" height="30" as="geometry" />
        </mxCell>
        <mxCell id="_aBtv9UDma8dpG4EVbKt-77" value="&lt;font style=&quot;font-size: 10px;&quot;&gt;\(Tanh\)&lt;/font&gt;" style="text;html=1;strokeColor=none;fillColor=none;align=center;verticalAlign=middle;whiteSpace=wrap;rounded=0;" parent="1" vertex="1">
          <mxGeometry x="511" y="155.625" width="60" height="20" as="geometry" />
        </mxCell>
        <mxCell id="_aBtv9UDma8dpG4EVbKt-84" style="edgeStyle=orthogonalEdgeStyle;rounded=0;orthogonalLoop=1;jettySize=auto;html=1;exitX=1;exitY=0.5;exitDx=0;exitDy=0;entryX=0;entryY=0.5;entryDx=0;entryDy=0;" parent="1" source="_aBtv9UDma8dpG4EVbKt-79" target="_aBtv9UDma8dpG4EVbKt-83" edge="1">
          <mxGeometry relative="1" as="geometry" />
        </mxCell>
        <mxCell id="_aBtv9UDma8dpG4EVbKt-79" value="" style="rounded=0;whiteSpace=wrap;html=1;fillColor=#bac8d3;strokeColor=#7C858C;" parent="1" vertex="1">
          <mxGeometry x="650" y="158.125" width="20" height="60" as="geometry" />
        </mxCell>
        <mxCell id="_aBtv9UDma8dpG4EVbKt-81" value="&lt;font style=&quot;font-size: 10px;&quot;&gt;4X1&lt;/font&gt;" style="text;html=1;strokeColor=none;fillColor=none;align=center;verticalAlign=middle;whiteSpace=wrap;rounded=0;" parent="1" vertex="1">
          <mxGeometry x="630" y="218.125" width="60" height="20" as="geometry" />
        </mxCell>
        <mxCell id="_aBtv9UDma8dpG4EVbKt-82" value="&lt;font style=&quot;font-size: 10px;&quot;&gt;\(Tanh\)&lt;/font&gt;" style="text;html=1;strokeColor=none;fillColor=none;align=center;verticalAlign=middle;whiteSpace=wrap;rounded=0;" parent="1" vertex="1">
          <mxGeometry x="597.5" y="168.125" width="60" height="20" as="geometry" />
        </mxCell>
        <mxCell id="_aBtv9UDma8dpG4EVbKt-83" value="" style="ellipse;whiteSpace=wrap;html=1;aspect=fixed;fillColor=#F8CECC;strokeColor=#36393d;" parent="1" vertex="1">
          <mxGeometry x="710" y="180.625" width="15" height="15" as="geometry" />
        </mxCell>
        <mxCell id="_aBtv9UDma8dpG4EVbKt-85" value="&lt;font style=&quot;font-size: 12px;&quot;&gt;\(\tilde{GHI}\)&lt;br&gt;&lt;/font&gt;" style="text;html=1;strokeColor=none;fillColor=none;align=center;verticalAlign=middle;whiteSpace=wrap;rounded=0;" parent="1" vertex="1">
          <mxGeometry x="668.12" y="195.62" width="98.75" height="30" as="geometry" />
        </mxCell>
        <mxCell id="_aBtv9UDma8dpG4EVbKt-86" value="" style="ellipse;whiteSpace=wrap;html=1;aspect=fixed;fillColor=#cdeb8b;strokeColor=#36393d;" parent="1" vertex="1">
          <mxGeometry x="515.25" y="276" width="15" height="15" as="geometry" />
        </mxCell>
        <mxCell id="_aBtv9UDma8dpG4EVbKt-88" value="" style="ellipse;whiteSpace=wrap;html=1;aspect=fixed;fillColor=#F8CECC;strokeColor=#36393d;" parent="1" vertex="1">
          <mxGeometry x="618.5" y="276" width="15" height="15" as="geometry" />
        </mxCell>
        <mxCell id="_aBtv9UDma8dpG4EVbKt-89" value="Input" style="text;html=1;strokeColor=none;fillColor=none;align=left;verticalAlign=middle;whiteSpace=wrap;rounded=0;" parent="1" vertex="1">
          <mxGeometry x="541.75" y="273.5" width="60" height="20" as="geometry" />
        </mxCell>
        <mxCell id="_aBtv9UDma8dpG4EVbKt-90" value="Output" style="text;html=1;strokeColor=none;fillColor=none;align=left;verticalAlign=middle;whiteSpace=wrap;rounded=0;" parent="1" vertex="1">
          <mxGeometry x="645" y="273" width="60" height="20" as="geometry" />
        </mxCell>
        <mxCell id="_aBtv9UDma8dpG4EVbKt-97" style="edgeStyle=orthogonalEdgeStyle;rounded=0;orthogonalLoop=1;jettySize=auto;html=1;exitX=0.1;exitY=0.5;exitDx=0;exitDy=0;exitPerimeter=0;endArrow=baseDash;endFill=0;" parent="1" source="_aBtv9UDma8dpG4EVbKt-92" edge="1">
          <mxGeometry relative="1" as="geometry">
            <mxPoint x="379.90697674418607" y="290" as="targetPoint" />
          </mxGeometry>
        </mxCell>
        <mxCell id="_aBtv9UDma8dpG4EVbKt-92" value="" style="shape=curlyBracket;whiteSpace=wrap;html=1;rounded=1;labelPosition=left;verticalLabelPosition=middle;align=right;verticalAlign=middle;direction=north;" parent="1" vertex="1">
          <mxGeometry x="365" y="251.25" width="30" height="20" as="geometry" />
        </mxCell>
        <mxCell id="_aBtv9UDma8dpG4EVbKt-93" value="Cloud Impact Vector" style="text;html=1;strokeColor=none;fillColor=none;align=center;verticalAlign=middle;whiteSpace=wrap;rounded=0;" parent="1" vertex="1">
          <mxGeometry x="350" y="300" width="60" height="30" as="geometry" />
        </mxCell>
        <mxCell id="_aBtv9UDma8dpG4EVbKt-99" value="&lt;font style=&quot;font-size: 16px;&quot; face=&quot;Lucida Console&quot;&gt;X&lt;/font&gt;" style="text;html=1;strokeColor=none;fillColor=none;align=center;verticalAlign=middle;whiteSpace=wrap;rounded=0;" parent="1" vertex="1">
          <mxGeometry x="512.75" y="301" width="20" height="30" as="geometry" />
        </mxCell>
        <mxCell id="_aBtv9UDma8dpG4EVbKt-100" value="Element-wise Multiplication" style="text;html=1;strokeColor=none;fillColor=none;align=left;verticalAlign=middle;whiteSpace=wrap;rounded=0;" parent="1" vertex="1">
          <mxGeometry x="541.75" y="306" width="156.25" height="20" as="geometry" />
        </mxCell>
        <mxCell id="_aBtv9UDma8dpG4EVbKt-102" value="" style="endArrow=classic;html=1;rounded=0;" parent="1" edge="1">
          <mxGeometry width="50" height="50" relative="1" as="geometry">
            <mxPoint x="512.75" y="343.08" as="sourcePoint" />
            <mxPoint x="532.75" y="343.08" as="targetPoint" />
          </mxGeometry>
        </mxCell>
        <mxCell id="_aBtv9UDma8dpG4EVbKt-103" value="Dense Feed-forward Layer" style="text;html=1;strokeColor=none;fillColor=none;align=left;verticalAlign=middle;whiteSpace=wrap;rounded=0;" parent="1" vertex="1">
          <mxGeometry x="541.75" y="333" width="156.25" height="20" as="geometry" />
        </mxCell>
        <mxCell id="50yd6Q8TgF5kWspLU8kv-1" value="&lt;font face=&quot;Courier New&quot;&gt;civ&lt;/font&gt;" style="text;html=1;strokeColor=none;fillColor=none;align=center;verticalAlign=middle;whiteSpace=wrap;rounded=0;" vertex="1" parent="1">
          <mxGeometry x="365" y="90" width="30" height="30" as="geometry" />
        </mxCell>
        <mxCell id="50yd6Q8TgF5kWspLU8kv-2" value="&lt;font face=&quot;Courier New&quot;&gt;sp&lt;/font&gt;" style="text;html=1;strokeColor=none;fillColor=none;align=center;verticalAlign=middle;whiteSpace=wrap;rounded=0;" vertex="1" parent="1">
          <mxGeometry x="310" y="138.13" width="20" height="30" as="geometry" />
        </mxCell>
        <mxCell id="50yd6Q8TgF5kWspLU8kv-3" value="&lt;font face=&quot;Courier New&quot;&gt;cfc&lt;/font&gt;" style="text;html=1;strokeColor=none;fillColor=none;align=center;verticalAlign=middle;whiteSpace=wrap;rounded=0;" vertex="1" parent="1">
          <mxGeometry x="305" y="183.13" width="30" height="30" as="geometry" />
        </mxCell>
      </root>
    </mxGraphModel>
  </diagram>
</mxfile>
